<svg width="32" height="32" viewBox="0 0 32 32" fill="none" xmlns="http://www.w3.org/2000/svg">
<g clip-path="url(#clip0_4070_255)">
<path d="M21.9988 0C20.2928 0.117999 18.2988 1.20999 17.1368 2.63198C16.0769 3.92198 15.2049 5.83797 15.5449 7.69995C17.4088 7.75795 19.3348 6.63996 20.4508 5.19397C21.4948 3.84798 22.2848 1.94399 21.9988 0Z" fill="white"/>
<path d="M28.7406 10.7362C27.1026 8.68223 24.8006 7.49023 22.6266 7.49023C19.7566 7.49023 18.5427 8.86423 16.5487 8.86423C14.4927 8.86423 12.9307 7.49423 10.4487 7.49423C8.01071 7.49423 5.41473 8.98423 3.76874 11.5322C1.45475 15.1202 1.85075 21.8662 5.60073 27.6121C6.94272 29.6681 8.73471 31.9801 11.0787 32.0001C13.1647 32.0201 13.7527 30.6621 16.5787 30.6481C19.4046 30.6321 19.9406 32.0181 22.0226 31.9961C24.3686 31.9781 26.2586 29.4161 27.6006 27.3601C28.5626 25.8861 28.9206 25.1441 29.6666 23.4801C24.2406 21.4142 23.3706 13.6982 28.7406 10.7362Z" fill="white"/>
</g>
<defs>
<clipPath id="clip0_4070_255">
<rect width="32" height="32" fill="white"/>
</clipPath>
</defs>
</svg>
