<svg width="32" height="32" viewBox="0 0 32 32" fill="none" xmlns="http://www.w3.org/2000/svg">
<path d="M19.8025 9.76833L3.01902 0.123178C2.80812 4.82537e-05 2.54279 0.00688879 2.3387 0.130018C2.1278 0.253148 1.99854 0.472045 1.99854 0.718304C1.99854 0.718304 2.00534 1.60757 2.01214 3.07145L14.2375 15.3639L19.8025 9.76833Z" fill="url(#paint0_linear_4070_1200)"/>
<path d="M2.01221 3.07129C2.03262 8.35219 2.09385 21.1714 2.12106 27.5536L14.2444 15.3637L2.01221 3.07129Z" fill="url(#paint1_linear_4070_1200)"/>
<path d="M29.4084 15.2889L19.8023 9.76855L14.2305 15.3641L20.5166 21.6848L29.4152 16.4723C29.6262 16.3492 29.7554 16.1234 29.7554 15.884C29.7554 15.6377 29.6193 15.412 29.4084 15.2889Z" fill="url(#paint2_linear_4070_1200)"/>
<path d="M2.11426 27.5536C2.12786 29.8315 2.13467 31.2885 2.13467 31.2885C2.13467 31.5348 2.26393 31.7605 2.47483 31.8768C2.68573 31.9999 2.94425 31.9999 3.15515 31.8768L20.5237 21.6913L14.2376 15.3706L2.11426 27.5536Z" fill="url(#paint3_linear_4070_1200)"/>
<defs>
<linearGradient id="paint0_linear_4070_1200" x1="1.99854" y1="7.70208" x2="19.8057" y2="7.70208" gradientUnits="userSpaceOnUse">
<stop stop-color="#63BE6B"/>
<stop offset="0.506" stop-color="#5BBC6A"/>
<stop offset="1" stop-color="#4AB96A"/>
</linearGradient>
<linearGradient id="paint1_linear_4070_1200" x1="2.00894" y1="15.3154" x2="14.2373" y2="15.3154" gradientUnits="userSpaceOnUse">
<stop stop-color="#3EC6F2"/>
<stop offset="1" stop-color="#45AFE3"/>
</linearGradient>
<linearGradient id="paint2_linear_4070_1200" x1="14.237" y1="15.731" x2="29.7538" y2="15.731" gradientUnits="userSpaceOnUse">
<stop stop-color="#FAA51A"/>
<stop offset="0.387" stop-color="#FAB716"/>
<stop offset="0.741" stop-color="#FAC412"/>
<stop offset="1" stop-color="#FAC80F"/>
</linearGradient>
<linearGradient id="paint3_linear_4070_1200" x1="2.11725" y1="23.6696" x2="20.5234" y2="23.6696" gradientUnits="userSpaceOnUse">
<stop stop-color="#EC3B50"/>
<stop offset="1" stop-color="#E7515B"/>
</linearGradient>
</defs>
</svg>
