<svg width="209" height="58" viewBox="0 0 209 58" fill="none" xmlns="http://www.w3.org/2000/svg">
<path d="M38.7144 49.0225V35.6362H1.26725C0.568078 35.6362 0 36.2043 0 36.9035V49.0225C0 52.6859 2.96907 55.655 6.63245 55.655H6.96262C6.98204 53.9386 8.38525 52.5475 10.1065 52.5475C11.8277 52.5475 13.2285 53.9386 13.2503 55.655H25.5175C25.5369 53.9386 26.9401 52.5475 28.6613 52.5475C30.3826 52.5475 31.7833 53.9386 31.8052 55.655H32.0868C35.7502 55.655 38.7193 52.6859 38.7193 49.0225H38.7144Z" fill="url(#paint0_linear_51_239)"/>
<path d="M38.7486 14.724V34.7573H1.29899C0.599818 34.7573 0.0317383 34.1892 0.0317383 33.49V6.63245C0.0317383 2.96906 3.0008 0 6.66419 0H24.0635C24.4859 0 24.9034 0.0194192 25.3186 0.0582622C32.8444 0.708884 38.7486 7.02574 38.7486 14.7215V14.724Z" fill="url(#paint1_linear_51_239)"/>
<path d="M26.5951 25.4738C26.5393 25.1777 26.3766 24.9349 26.1727 24.7213C25.9396 24.4761 25.6604 24.2843 25.3594 24.1265C24.903 23.891 24.4174 23.7211 23.9271 23.573C23.4876 23.4419 23.041 23.3326 22.587 23.2646C22.3952 23.5535 22.2034 23.8473 22.0068 24.141C22.1913 24.1726 22.3782 24.2017 22.5627 24.2357C23.0361 24.3207 23.5071 24.4178 23.9659 24.5659C24.381 24.697 24.7889 24.8548 25.1603 25.0854C25.323 25.1874 25.4735 25.3039 25.5779 25.469C25.6653 25.6049 25.6847 25.753 25.6046 25.8963C25.556 25.9788 25.4905 26.0541 25.4201 26.122C25.2841 26.2531 25.1191 26.343 24.9515 26.4279C24.5655 26.6294 24.1625 26.7751 23.745 26.8965C23.3857 26.9984 23.0264 27.081 22.6598 27.149C22.4146 27.1951 22.1646 27.2315 21.9169 27.2679C21.7081 27.297 21.4969 27.3213 21.2882 27.3432C21.1061 27.3626 20.9216 27.3796 20.7395 27.3917C20.5963 27.4039 20.4506 27.4087 20.3098 27.416C20.0743 27.4281 19.8437 27.4451 19.6082 27.4451C19.6033 27.4451 19.5961 27.4451 19.5912 27.4451C19.3242 27.45 19.0547 27.45 18.7876 27.4403C18.5934 27.4354 18.4016 27.4257 18.2098 27.4136C18.0156 27.4014 17.8238 27.3942 17.6321 27.3772C17.3237 27.3505 17.0154 27.3213 16.7071 27.2825C16.4109 27.2436 16.1123 27.1975 15.8186 27.1441C15.4059 27.0664 14.9956 26.9669 14.595 26.8406C14.1507 26.6998 13.7162 26.5275 13.3156 26.2871C13.1627 26.1924 13.0219 26.0881 12.9272 25.9278C12.8568 25.8113 12.8374 25.6899 12.8859 25.5588C12.9272 25.4544 12.9976 25.3646 13.0777 25.2918C13.2452 25.1388 13.437 25.0223 13.6385 24.9252C14.2066 24.6509 14.8014 24.4688 15.418 24.3474C15.7724 24.2746 16.1293 24.2139 16.4862 24.1508C16.292 23.8619 16.0953 23.5657 15.8987 23.2719C15.736 23.2986 15.5758 23.3278 15.4156 23.3618C14.9397 23.4613 14.4736 23.5924 14.0172 23.7599C13.6069 23.908 13.2039 24.0731 12.8349 24.311C12.5485 24.4955 12.3033 24.7188 12.1188 25.0053C11.8104 25.4811 11.8202 26.0152 12.1649 26.4716C12.3275 26.6853 12.5242 26.8576 12.7427 27.0106C13.1335 27.2825 13.5632 27.4743 14.0099 27.6321C14.493 27.802 14.9883 27.9331 15.4908 28.0302C15.7991 28.0909 16.1075 28.1395 16.4182 28.1856C16.6221 28.2147 16.8236 28.239 17.0276 28.2608C17.2582 28.2875 17.4888 28.3094 17.7219 28.3288C17.8772 28.3409 18.035 28.3458 18.1904 28.3531C18.4235 28.3628 18.6541 28.3822 18.8872 28.3822C19.2052 28.3822 19.5208 28.3749 19.8364 28.3701C19.9991 28.3701 20.1617 28.3604 20.3219 28.3531C20.5938 28.3361 20.8682 28.3191 21.1376 28.2948C21.3707 28.2754 21.6013 28.2536 21.832 28.222C22.1937 28.171 22.5603 28.12 22.922 28.0521C23.393 27.9695 23.8567 27.853 24.3082 27.7025C24.8035 27.5374 25.2793 27.3359 25.709 27.0397C26.0173 26.8285 26.2843 26.5785 26.4664 26.2459C26.5975 26.0007 26.6388 25.7433 26.5878 25.4714L26.5951 25.4738Z" fill="white"/>
<path d="M12.6018 15.2119C12.7256 15.6756 12.9004 16.1223 13.0801 16.5641C13.2889 17.0812 13.5146 17.5862 13.7598 18.0863C14.0754 18.7394 14.4153 19.3803 14.7746 20.0115C15.2432 20.832 15.7408 21.638 16.2555 22.4319C16.2628 22.444 16.2701 22.4562 16.2774 22.4659C16.5638 22.9077 16.8576 23.3447 17.1513 23.7817C17.3504 24.0754 17.547 24.3667 17.7485 24.6605C17.8359 24.7892 17.9258 24.9178 18.0156 25.0441C18.353 25.5272 18.6978 26.0079 19.0376 26.4861C19.0862 26.5541 19.1323 26.6221 19.1809 26.6925C19.1979 26.7167 19.2149 26.7386 19.2319 26.7629C19.2586 26.7362 19.2828 26.7143 19.3047 26.6925C19.312 26.6852 19.3193 26.6755 19.3265 26.6658C19.3921 26.5832 19.4576 26.5055 19.5208 26.4206C19.9505 25.8404 20.3559 25.2456 20.7589 24.6459C20.8171 24.5585 20.8754 24.4711 20.9361 24.3813C21.327 23.7962 21.7154 23.2087 22.1014 22.6212C22.1354 22.5678 22.1718 22.5144 22.2082 22.461C22.3879 22.1891 22.5651 21.9172 22.7374 21.638C23.0215 21.1792 23.2982 20.7131 23.5774 20.2518C23.9392 19.6522 24.2863 19.0452 24.6043 18.4189C24.8155 18.0062 25.0146 17.5862 25.204 17.1638C25.5633 16.3602 25.8473 15.5324 26.0245 14.6681C26.1289 14.1777 26.1799 13.6825 26.1969 13.1799C26.2018 13.0683 26.1872 12.9542 26.1872 12.8401C26.1823 12.5269 26.1459 12.2186 26.0901 11.9103C25.976 11.2572 25.7526 10.6381 25.4346 10.0604C25.0389 9.34176 24.5291 8.70813 23.9246 8.15219C23.439 7.70549 22.9001 7.33163 22.3053 7.03788C21.7809 6.77811 21.2371 6.59361 20.6739 6.48193V10.1987C21.6304 10.711 22.3223 11.7476 22.3223 12.9347C22.3223 14.6123 20.9021 16.03 19.1542 15.9815C17.5543 15.9402 16.139 14.5734 16.1851 12.8012C16.2167 11.6723 16.8916 10.7158 17.8141 10.2206V6.51835C17.7631 6.52807 17.7121 6.53777 17.6611 6.55234C17.0955 6.68829 16.5541 6.88979 16.0394 7.15683C15.668 7.35105 15.3136 7.56954 14.9785 7.82445C14.6022 8.11091 14.2575 8.4338 13.9443 8.79067C13.5778 9.20823 13.2694 9.66707 13.017 10.1575C12.8033 10.575 12.6407 11.012 12.5217 11.466C12.4003 11.937 12.3348 12.4152 12.3154 12.9008C12.3032 13.2625 12.3202 13.6242 12.3615 13.9859C12.41 14.3986 12.4902 14.8041 12.5994 15.2046L12.6018 15.2119Z" fill="white"/>
<path d="M45.094 49.0223V21.4024C45.094 13.141 40.411 5.9696 33.5552 2.40332C37.2283 5.26071 39.5953 9.72281 39.5953 14.7239V49.0223C39.5953 51.8918 37.9784 54.3899 35.6066 55.6547H38.4615C42.1249 55.6547 45.094 52.6857 45.094 49.0223Z" fill="white"/>
<path d="M45.9755 21.4026V34.7573H50.8673C51.5665 34.7573 52.1346 34.1892 52.1346 33.4901V28.103C52.1346 16.5059 45.1064 6.54753 35.0776 2.25537C41.5984 6.14453 45.9755 13.2722 45.9755 21.4026Z" fill="white"/>
<path d="M52.8095 38.4985H52.1346V36.9059C52.1346 36.2067 51.5665 35.6387 50.8673 35.6387H45.9755V49.025C45.9755 51.8945 44.3587 54.3926 41.9868 55.6574H45.5021C49.1655 55.6574 52.1346 52.6883 52.1346 49.025V48.6171H52.8095C53.1663 48.6171 53.4528 48.3282 53.4528 47.9738V39.1443C53.4528 38.7874 53.1639 38.5009 52.8095 38.5009V38.4985Z" fill="white"/>
<path d="M10.1037 53.3804C8.84126 53.3804 7.81192 54.3951 7.79492 55.6551C7.79492 55.6673 7.79492 55.6794 7.79492 55.6915C7.79492 56.9661 8.82912 58.0003 10.1037 58.0003C11.3782 58.0003 12.4124 56.9661 12.4124 55.6915C12.4124 55.6794 12.4124 55.6673 12.4124 55.6551C12.3954 54.3976 11.3661 53.3804 10.1037 53.3804Z" fill="white"/>
<path d="M28.6588 53.3804C27.3964 53.3804 26.3671 54.3951 26.3501 55.6551C26.3501 55.6673 26.3501 55.6794 26.3501 55.6915C26.3501 56.9661 27.3843 58.0003 28.6588 58.0003C29.9334 58.0003 30.9676 56.9661 30.9676 55.6915C30.9676 55.6794 30.9676 55.6673 30.9676 55.6551C30.9506 54.3976 29.9212 53.3804 28.6588 53.3804Z" fill="white"/>
<path d="M70.0411 55.7421C68.4582 55.7421 66.9603 55.3973 65.545 54.7079C64.1296 54.0184 63.1246 53.0425 62.5298 51.7752L64.3457 50.2676C64.756 51.1974 65.5328 51.9622 66.6763 52.5569C67.8222 53.1517 68.951 53.4503 70.0678 53.4503C71.352 53.4503 72.4979 53.1711 73.503 52.6128C74.508 52.0544 75.0106 51.2824 75.0106 50.2943C75.0106 49.549 74.7071 48.9542 74.1026 48.5075C73.4981 48.0608 72.6654 47.6797 71.6045 47.3641L67.2492 46.0798C65.982 45.689 64.9648 45.0845 64.1928 44.2639C63.4207 43.4458 63.0347 42.4213 63.0347 41.1929C63.0347 39.5372 63.7461 38.1874 65.1711 37.1435C66.5962 36.102 68.2276 35.5801 70.0702 35.5801C71.4855 35.5801 72.8111 35.835 74.0492 36.3472C75.2873 36.8595 76.2681 37.6363 76.994 38.6778L75.0955 40.1854C74.593 39.4401 73.8817 38.8696 72.9592 38.469C72.0366 38.0685 71.0825 37.8694 70.0969 37.8694C69.0554 37.8694 68.0674 38.1583 67.1375 38.7361C66.2077 39.3139 65.7416 40.0956 65.7416 41.0812C65.7416 42.4043 66.6714 43.3244 68.5335 43.8464L73.0296 45.1865C76.1564 46.1163 77.7199 47.7185 77.7199 49.9884C77.7199 51.6635 76.96 53.0425 75.4451 54.1204C73.9278 55.2007 72.1265 55.7396 70.0435 55.7396L70.0411 55.7421Z" fill="white"/>
<path d="M87.938 55.4632V38.2071H82.3252V35.8062H96.0902V38.2071H90.5065V55.4632H87.938Z" fill="white"/>
<path d="M117.311 52.795C115.337 54.7785 112.955 55.769 110.164 55.769C107.372 55.769 104.988 54.7785 103.016 52.795C101.043 50.8116 100.057 48.4252 100.057 45.6333C100.057 42.8415 101.043 40.4575 103.016 38.4862C104.99 36.5149 107.372 35.5269 110.164 35.5269C112.955 35.5269 115.339 36.5149 117.311 38.4862C119.284 40.4599 120.27 42.8415 120.27 45.6333C120.27 48.4252 119.284 50.8116 117.311 52.795ZM104.9 51.0228C106.362 52.511 108.117 53.2563 110.164 53.2563C112.21 53.2563 113.965 52.511 115.427 51.0228C116.888 49.5346 117.619 47.7381 117.619 45.6333C117.619 43.5285 116.888 41.7296 115.427 40.2293C113.965 38.7314 112.21 37.9812 110.164 37.9812C108.117 37.9812 106.362 38.7314 104.9 40.2293C103.439 41.7272 102.708 43.5285 102.708 45.6333C102.708 47.7381 103.439 49.5322 104.9 51.0228Z" fill="white"/>
<path d="M127.308 55.4632V35.8062H134.902C136.521 35.8062 137.903 36.3791 139.048 37.5225C140.194 38.666 140.765 40.0595 140.765 41.6957C140.765 42.9241 140.405 44.019 139.689 44.9755C138.973 45.9345 138.055 46.5802 136.939 46.9153L142.942 55.4583H139.842L134.229 47.4178H129.845V55.4583H127.303L127.308 55.4632ZM129.847 45.1309H134.734C135.703 45.1309 136.521 44.7959 137.191 44.1258C137.861 43.4558 138.196 42.6449 138.196 41.6957C138.196 40.7465 137.861 39.9089 137.191 39.2389C136.521 38.5689 135.703 38.2338 134.734 38.2338H129.847V45.1309Z" fill="white"/>
<path d="M147.13 55.4629L156.288 35.3325H156.652L165.838 55.4629H163.046L161.398 51.666H151.541L149.893 55.4629H147.128H147.13ZM152.576 49.3209H160.337L156.455 40.5253L152.573 49.3209H152.576Z" fill="white"/>
<path d="M179.967 55.769C177.192 55.769 174.815 54.7785 172.832 52.795C170.848 50.8116 169.858 48.4252 169.858 45.6333C169.858 42.8415 170.844 40.4575 172.817 38.4862C174.791 36.5125 177.173 35.5269 179.964 35.5269C181.771 35.5269 183.455 35.9784 185.019 36.8815C186.582 37.7846 187.82 39.0179 188.733 40.5813L186.415 41.8389C185.764 40.6663 184.866 39.7316 183.72 39.0324C182.574 38.3333 181.324 37.9861 179.964 37.9861C177.898 37.9861 176.138 38.7314 174.687 40.2196C173.235 41.7102 172.509 43.514 172.509 45.6358C172.509 47.7576 173.23 49.5953 174.672 51.0932C176.114 52.5911 177.879 53.3413 179.962 53.3413C181.88 53.3413 183.526 52.727 184.905 51.4986C186.281 50.2702 187.056 48.7335 187.223 46.8909H179.964V45.0483H189.959V45.7474C189.923 48.5223 188.935 50.8844 187 52.8387C185.065 54.793 182.717 55.7714 179.964 55.7714L179.967 55.769Z" fill="white"/>
<path d="M196.606 55.4632V35.8062H208.67V38.2071H199.177V44.2108H207.861V46.1942H199.177V53.0622H208.67V55.4632H196.606Z" fill="white"/>
<path d="M75.8968 2.23337C80.5094 2.23337 84.4641 4.11241 86.9355 7.30725L82.8157 10.8978C81.3324 9.01877 78.6643 7.56944 76.1274 7.56944C71.2186 7.56944 68.7472 11.0289 68.7472 14.5223C68.7472 18.0158 71.2186 21.4413 76.1274 21.4413C79.3562 21.4413 81.4003 19.8608 82.8157 18.0474L86.9355 21.6379C84.3985 24.7672 80.4438 26.8113 75.8652 26.8113C69.9344 26.8113 62.9814 22.626 62.9814 14.5199C62.9814 6.41386 69.9659 2.22852 75.8992 2.22852L75.8968 2.23337Z" fill="#0082E0"/>
<path d="M111.385 2.99072V7.63733H90.7905V2.99072H111.385ZM111.385 12.216V16.8286H90.7905V12.216H111.385ZM111.385 21.4096V26.0562H90.8901V21.4096H111.385Z" fill="#0082E0"/>
<path d="M116.194 2.99072H121.763L135.931 19.0693V2.99072H141.467V26.0562H135.931L121.763 9.97763V26.0562H116.194V2.99072Z" fill="#0082E0"/>
<path d="M146.407 2.99072H151.976V26.0562H146.407V2.99072Z" fill="#0082E0"/>
<path d="M181.069 2.99072V7.60334H170.987V26.0562H165.418V7.57178H155.336V2.99072H181.069Z" fill="#0082E0"/>
<path d="M184.429 2.99072H189.998V12.1844H202.717V2.99072H208.252V26.0562H202.717V16.831H189.998V26.0562H184.429V2.99072Z" fill="#0082E0"/>
<defs>
<linearGradient id="paint0_linear_51_239" x1="0" y1="45.6456" x2="38.7144" y2="45.6456" gradientUnits="userSpaceOnUse">
<stop stop-color="#6C7CEF"/>
<stop offset="0.38" stop-color="#5F6DEE"/>
<stop offset="1" stop-color="#454CED"/>
</linearGradient>
<linearGradient id="paint1_linear_51_239" x1="0.0317383" y1="17.3798" x2="38.7486" y2="17.3798" gradientUnits="userSpaceOnUse">
<stop stop-color="#6C7CEF"/>
<stop offset="0.38" stop-color="#5F6DEE"/>
<stop offset="1" stop-color="#454CED"/>
</linearGradient>
</defs>
</svg>
