<svg width="181" height="47" viewBox="0 0 181 47" fill="none" xmlns="http://www.w3.org/2000/svg">
<path d="M34.0426 39.7259V28.8789H1.11374C0.498403 28.8789 0 29.3389 0 29.9053V39.7259C0 42.6941 2.61109 45.1004 5.83111 45.1004H6.1206C6.13771 43.71 7.37124 42.5824 8.88428 42.5824C10.3973 42.5824 11.6301 43.71 11.648 45.1004H22.436C22.4531 43.71 23.6867 42.5824 25.1997 42.5824C26.7127 42.5824 27.9456 43.71 27.9634 45.1004H28.2115C31.4315 45.1004 34.0433 42.6941 34.0433 39.7259H34.0426Z" fill="#0082E0"/>
<path d="M34.07 11.9306V28.1646H1.14109C0.52646 28.1646 0.0273438 27.7046 0.0273438 27.1382V5.37388C0.0273438 2.40635 2.63915 0 5.85917 0H21.1592C21.5307 0.00131423 21.8986 0.0157705 22.2623 0.0479691C28.8791 0.575632 34.0707 5.69521 34.0707 11.9312L34.07 11.9306Z" fill="#0082E0"/>
<path d="M22.3778 22.4642C22.3293 22.2237 22.186 22.0279 22.0063 21.8551C21.8009 21.6553 21.5556 21.5002 21.2904 21.3741C20.8882 21.1835 20.4626 21.0455 20.0312 20.9259C19.6447 20.8194 19.2526 20.732 18.854 20.6755C18.6864 20.9095 18.516 21.1473 18.3449 21.3859C18.5082 21.4109 18.6722 21.4352 18.834 21.4628C19.2504 21.5324 19.664 21.6106 20.0683 21.7302C20.4341 21.8373 20.792 21.9635 21.1193 22.1508C21.2626 22.2329 21.3938 22.3288 21.4872 22.4609C21.5642 22.572 21.582 22.6909 21.51 22.8072C21.4679 22.8749 21.4095 22.9354 21.3481 22.9906C21.2276 23.0963 21.0829 23.1693 20.936 23.2383C20.5973 23.4019 20.2415 23.5202 19.8758 23.6181C19.5606 23.7016 19.2433 23.7679 18.9224 23.8231C18.7057 23.8606 18.4868 23.8908 18.2686 23.9191C18.0846 23.9421 17.8993 23.9618 17.7153 23.9795C17.5549 23.9953 17.3923 24.0084 17.2319 24.0189C17.1057 24.0281 16.9787 24.0327 16.8532 24.0386C16.6465 24.0478 16.444 24.0616 16.2372 24.063C16.2322 24.063 16.2272 24.063 16.2222 24.063C15.9869 24.0662 15.7516 24.0662 15.5156 24.0597C15.3459 24.0557 15.1769 24.0485 15.0072 24.0373C14.8368 24.0268 14.6685 24.0216 14.4981 24.0071C14.2272 23.9854 13.9569 23.9624 13.686 23.9302C13.425 23.8993 13.1641 23.8619 12.9045 23.8179C12.5409 23.7554 12.1815 23.6746 11.8293 23.5721C11.4393 23.4578 11.0578 23.3191 10.7041 23.1226C10.5701 23.0457 10.4453 22.9603 10.3619 22.8322C10.2998 22.7376 10.2827 22.6397 10.3269 22.5339C10.364 22.4484 10.4239 22.3775 10.4952 22.3164C10.6421 22.1915 10.8111 22.0975 10.9886 22.0187C11.4877 21.7959 12.0118 21.6481 12.5537 21.5495C12.866 21.491 13.1797 21.4424 13.4921 21.3892C13.3216 21.1546 13.1477 20.916 12.9758 20.6762C12.8325 20.6972 12.692 20.7222 12.5516 20.7491C12.1337 20.8293 11.7238 20.9364 11.323 21.0718C10.9615 21.1927 10.6079 21.3267 10.2842 21.5193C10.0332 21.6691 9.81641 21.8505 9.65456 22.0824C9.38361 22.4675 9.39145 22.9005 9.6952 23.2711C9.83781 23.444 10.0125 23.5846 10.2036 23.7081C10.5465 23.9289 10.9252 24.084 11.318 24.2128C11.7437 24.3514 12.1787 24.4572 12.6193 24.5348C12.8903 24.5834 13.1612 24.6228 13.4336 24.6603C13.6118 24.6846 13.7901 24.7023 13.9698 24.7207C14.173 24.7418 14.3762 24.7595 14.5808 24.7759C14.7177 24.7864 14.8554 24.7897 14.993 24.7956C15.1976 24.8042 15.4008 24.8186 15.6055 24.82C15.8842 24.8219 16.163 24.8147 16.4411 24.8094C16.5844 24.8075 16.7278 24.8022 16.8689 24.7956C17.1085 24.7812 17.3488 24.7687 17.5869 24.749C17.7923 24.7332 17.9948 24.7155 18.198 24.6899C18.5167 24.6485 18.8376 24.6064 19.1556 24.5525C19.5692 24.4848 19.977 24.3902 20.3756 24.2693C20.8112 24.1352 21.2284 23.9729 21.6084 23.7324C21.8786 23.5609 22.1154 23.3579 22.2737 23.0891C22.3899 22.8907 22.4248 22.6824 22.3799 22.4616L22.3778 22.4642Z" fill="white"/>
<path d="M10.0748 14.1488C10.1846 14.5247 10.3379 14.8868 10.494 15.2449C10.678 15.6641 10.8769 16.0742 11.0923 16.4783C11.3703 17.0079 11.6684 17.5264 11.9843 18.0383C12.3957 18.7026 12.8335 19.3571 13.2862 19.9991C13.2927 20.0083 13.2998 20.0182 13.3062 20.0274C13.5586 20.3848 13.8167 20.739 14.0756 21.0939C14.2502 21.3311 14.4242 21.569 14.6011 21.8049C14.6788 21.9094 14.7572 22.0132 14.8356 22.1163C15.1323 22.5086 15.4353 22.897 15.7355 23.2854C15.7775 23.3405 15.8189 23.3951 15.8617 23.4523C15.8767 23.4713 15.8909 23.4904 15.9059 23.5101C15.9301 23.4891 15.9515 23.4713 15.9701 23.4529C15.9765 23.4463 15.9836 23.4391 15.9893 23.4319C16.0471 23.3655 16.1055 23.3018 16.1612 23.2334C16.5391 22.7643 16.8963 22.2813 17.2499 21.7963C17.302 21.7254 17.3533 21.6537 17.4054 21.5828C17.7498 21.109 18.0899 20.6326 18.43 20.1575C18.4607 20.1141 18.492 20.0701 18.5234 20.0267C18.6803 19.8066 18.8378 19.5858 18.9897 19.3604C19.2386 18.9878 19.4824 18.612 19.7284 18.2374C20.0457 17.7505 20.3516 17.259 20.6318 16.753C20.8179 16.4192 20.9933 16.0794 21.1602 15.7364C21.4753 15.0859 21.7249 14.4136 21.881 13.7132C21.9723 13.3156 22.0172 12.9148 22.0322 12.508C22.0365 12.4173 22.0243 12.3247 22.0243 12.232C22.0201 11.979 21.988 11.7274 21.9388 11.4783C21.8382 10.9487 21.6429 10.448 21.3627 9.97878C21.0147 9.39592 20.5655 8.88403 20.0357 8.43259C19.6079 8.07118 19.1345 7.76825 18.6118 7.53037C18.1498 7.32075 17.672 7.17093 17.1765 7.07959V10.0925C18.0179 10.5071 18.6254 11.3469 18.6254 12.3096C18.6275 13.6698 17.3776 14.8178 15.8396 14.7783C14.4335 14.7448 13.1871 13.6376 13.2299 12.2011C13.257 11.2864 13.851 10.511 14.6617 10.1102V7.10982C14.6167 7.11704 14.5725 7.12559 14.5276 7.13676C14.0306 7.24715 13.555 7.41077 13.1009 7.62631C12.7736 7.78336 12.462 7.96144 12.1689 8.16646C11.8381 8.39842 11.5343 8.66061 11.2591 8.94974C10.9361 9.28881 10.6659 9.65942 10.4434 10.0583C10.2559 10.3974 10.1126 10.7515 10.0078 11.1195C9.90151 11.5007 9.84304 11.8897 9.82593 12.282C9.81452 12.5757 9.83021 12.8681 9.86657 13.1605C9.90935 13.4957 9.98066 13.8236 10.0755 14.1482L10.0748 14.1488Z" fill="white"/>
<path d="M39.6505 39.7232V17.3405C39.6505 10.6452 33.3743 3.778 27.3457 0.888672C31.6186 2.93656 34.8148 7.08564 34.8148 11.9285V39.7232C34.8148 42.0474 33.393 44.0726 31.3081 45.0977H33.8187C37.0394 45.0977 39.6505 42.6913 39.6505 39.7232Z" fill="#141D3F"/>
<path d="M40.4252 17.3416V28.1636H44.7269C45.3422 28.1636 45.8413 27.7036 45.8413 27.1365V22.7707C45.8413 13.3726 37.848 4.51261 29.0293 1.03516C34.7627 4.18668 40.4252 10.7527 40.4252 17.3409V17.3416Z" fill="#141D3F"/>
<path d="M46.4327 31.1966H45.8388V29.906C45.8388 29.3389 45.3397 28.8789 44.7243 28.8789H40.4227V39.7259C40.4227 42.0501 39.0009 44.0753 36.916 45.1004H40.007C43.2277 45.1004 45.8388 42.6941 45.8388 39.7259V39.396H46.4327C46.7458 39.396 46.9996 39.1628 46.9996 38.8736V31.7183C46.9996 31.4298 46.7465 31.1959 46.4327 31.1959V31.1966Z" fill="#141D3F"/>
<path d="M8.88226 43.2559C7.77136 43.2559 6.86796 44.0786 6.85156 45.0991C6.85156 45.1089 6.85156 45.1181 6.85156 45.128C6.85156 46.1616 7.76138 46.9994 8.88226 46.9994C10.0031 46.9994 10.9129 46.161 10.9129 45.128C10.9129 45.1181 10.9129 45.1089 10.9129 45.0991C10.8973 44.0792 9.99315 43.2559 8.88226 43.2559Z" fill="#0082E0"/>
<path d="M25.1987 43.2559C24.0878 43.2559 23.1844 44.0786 23.168 45.0991C23.168 45.1089 23.168 45.1181 23.168 45.128C23.168 46.1616 24.0778 46.9994 25.1987 46.9994C26.3195 46.9994 27.2294 46.161 27.2294 45.128C27.2294 45.1181 27.2294 45.1089 27.2294 45.0991C27.2137 44.0792 26.3096 43.2559 25.1987 43.2559Z" fill="#0082E0"/>
<path d="M60.5148 43.6172C59.1418 43.6172 57.8426 43.3381 56.6149 42.7797C55.3872 42.2214 54.5154 41.4311 53.9995 40.4049L55.5746 39.184C55.9305 39.937 56.6044 40.5562 57.5962 41.0379C58.5901 41.5196 59.5693 41.7614 60.538 41.7614C61.6519 41.7614 62.6459 41.5353 63.5177 41.0831C64.3895 40.631 64.8254 40.0058 64.8254 39.2056C64.8254 38.6021 64.5621 38.1204 64.0378 37.7587C63.5134 37.397 62.7912 37.0883 61.8709 36.8328L58.0932 35.7928C56.9939 35.4762 56.1116 34.9867 55.442 34.3222C54.7723 33.6597 54.4375 32.8301 54.4375 31.8353C54.4375 30.4945 55.0545 29.4015 56.2906 28.5561C57.5267 27.7127 58.9418 27.29 60.5401 27.29C61.7678 27.29 62.9175 27.4965 63.9915 27.9113C65.0654 28.3261 65.9162 28.9552 66.5458 29.7986L64.8991 31.0194C64.4632 30.4159 63.8462 29.9539 63.046 29.6295C62.2458 29.3051 61.4182 29.1439 60.5632 29.1439C59.6599 29.1439 58.8028 29.3779 57.9963 29.8458C57.1898 30.3137 56.7855 30.9467 56.7855 31.7449C56.7855 32.8163 57.592 33.5614 59.2071 33.9841L63.107 35.0693C65.8193 35.8223 67.1754 37.1198 67.1754 38.9579C67.1754 40.3144 66.5184 41.4311 65.2023 42.304C63.8862 43.1788 62.3237 43.6153 60.5169 43.6153L60.5148 43.6172Z" fill="#15213F"/>
<path d="M76.0385 43.3912V29.4172H71.1699V27.4729H83.1097V29.4172H78.2664V43.3912H76.0385Z" fill="#15213F"/>
<path d="M101.517 41.2323C99.8046 42.8385 97.7388 43.6406 95.3172 43.6406C92.8955 43.6406 90.8276 42.8385 89.1177 41.2323C87.4057 39.6261 86.5508 37.6936 86.5508 35.4328C86.5508 33.1719 87.4057 31.2414 89.1177 29.645C90.8297 28.0487 92.8955 27.2485 95.3172 27.2485C97.7388 27.2485 99.8067 28.0487 101.517 29.645C103.229 31.2433 104.084 33.1719 104.084 35.4328C104.084 37.6936 103.229 39.6261 101.517 41.2323ZM90.7518 39.7972C92.0195 41.0023 93.542 41.6058 95.3172 41.6058C97.0923 41.6058 98.6148 41.0023 99.8825 39.7972C101.15 38.592 101.784 37.1372 101.784 35.4328C101.784 33.7283 101.15 32.2715 99.8825 31.0566C98.6148 29.8436 97.0923 29.2361 95.3172 29.2361C93.542 29.2361 92.0195 29.8436 90.7518 31.0566C89.4841 32.2696 88.8503 33.7283 88.8503 35.4328C88.8503 37.1372 89.4841 38.5901 90.7518 39.7972Z" fill="#15213F"/>
<path d="M110.188 43.3912V27.4729H116.775C118.18 27.4729 119.378 27.9369 120.372 28.8628C121.366 29.7888 121.861 30.9172 121.861 32.2423C121.861 33.2371 121.549 34.1237 120.928 34.8983C120.307 35.6748 119.511 36.1978 118.542 36.4691L123.75 43.3872H121.06L116.192 36.876H112.389V43.3872H110.184L110.188 43.3912ZM112.391 35.0261H116.63C117.47 35.0261 118.18 34.7548 118.761 34.2122C119.342 33.6696 119.633 33.0129 119.633 32.2443C119.633 31.4756 119.342 30.7973 118.761 30.2547C118.18 29.7121 117.47 29.4408 116.63 29.4408H112.391V35.0261Z" fill="#15213F"/>
<path d="M127.383 43.391L135.326 27.0894H135.642L143.61 43.391H141.188L139.759 40.3162H131.209L129.779 43.391H127.381H127.383ZM132.106 38.4171H138.838L135.471 31.2945L132.104 38.4171H132.106Z" fill="#15213F"/>
<path d="M155.865 43.6406C153.458 43.6406 151.397 42.8385 149.676 41.2323C147.956 39.6261 147.097 37.6936 147.097 35.4328C147.097 33.1719 147.952 31.2414 149.664 29.645C151.376 28.0467 153.441 27.2485 155.863 27.2485C157.43 27.2485 158.891 27.6142 160.247 28.3455C161.603 29.0769 162.677 30.0756 163.469 31.3416L161.458 32.36C160.894 31.4104 160.115 30.6536 159.121 30.0874C158.127 29.5212 157.042 29.24 155.863 29.24C154.071 29.24 152.544 29.8436 151.285 31.0487C150.026 32.2558 149.396 33.7165 149.396 35.4347C149.396 37.153 150.022 38.6412 151.272 39.8542C152.523 41.0672 154.054 41.6746 155.861 41.6746C157.525 41.6746 158.952 41.1773 160.148 40.1825C161.342 39.1877 162.014 37.9433 162.159 36.4511H155.863V34.959H164.533V35.5252C164.501 37.7722 163.644 39.6851 161.966 41.2677C160.287 42.8503 158.251 43.6426 155.863 43.6426L155.865 43.6406Z" fill="#15213F"/>
<path d="M170.297 43.3912V27.4729H180.761V29.4172H172.527V34.279H180.06V35.8852H172.527V41.4469H180.761V43.3912H170.297Z" fill="#15213F"/>
<path d="M65.5944 0.285668C69.5954 0.285668 73.0257 1.80731 75.1694 4.3945L71.5959 7.30213C70.3092 5.78049 67.995 4.60682 65.7944 4.60682C61.5365 4.60682 59.3928 7.40829 59.3928 10.2373C59.3928 13.0663 61.5365 15.8402 65.7944 15.8402C68.5951 15.8402 70.3682 14.5604 71.5959 13.0918L75.1694 15.9995C72.9688 18.5336 69.5385 20.1889 65.567 20.1889C60.4226 20.1889 54.3916 16.7996 54.3916 10.2353C54.3916 3.67103 60.4499 0.281738 65.5965 0.281738L65.5944 0.285668Z" fill="#007AFF"/>
<path d="M96.377 0.898926V4.66175H78.5137V0.898926H96.377ZM96.377 8.37149V12.1068H78.5137V8.37149H96.377ZM96.377 15.8146V19.5774H78.6V15.8146H96.377Z" fill="#007AFF"/>
<path d="M100.548 0.898926H105.379L117.668 13.9194V0.898926H122.47V19.5774H117.668L105.379 6.55692V19.5774H100.548V0.898926Z" fill="#007AFF"/>
<path d="M126.755 0.898926H131.586V19.5774H126.755V0.898926Z" fill="#007AFF"/>
<path d="M156.821 0.898926V4.63423H148.075V19.5774H143.245V4.60867H134.5V0.898926H156.821Z" fill="#007AFF"/>
<path d="M159.735 0.898926H164.566V8.34397H175.598V0.898926H180.399V19.5774H175.598V12.1068H164.566V19.5774H159.735V0.898926Z" fill="#007AFF"/>
</svg>
