<svg width="181" height="47" viewBox="0 0 181 47" fill="none" xmlns="http://www.w3.org/2000/svg">
<path d="M33.5809 39.6986V28.8584H1.09922C0.492752 28.8584 0 29.3184 0 29.8846V39.6986C0 42.6652 2.57537 45.0696 5.753 45.0696H6.03939C6.05624 43.6797 7.27338 42.5532 8.76638 42.5532C10.2594 42.5532 11.4744 43.6797 11.4934 45.0696H22.1339C22.1507 43.6797 23.3679 42.5532 24.8609 42.5532C26.3539 42.5532 27.5689 43.6797 27.5879 45.0696H27.8322C31.0098 45.0696 33.5852 42.6652 33.5852 39.6986H33.5809Z" fill="white"/>
<path d="M33.6104 11.9235V28.1465H1.12656C0.520098 28.1465 0.0273438 27.6864 0.0273438 27.1202V5.37096C0.0273438 2.40435 2.60272 0 5.78034 0H20.8725C21.2389 0 21.6011 0.0157257 21.9612 0.0471808C28.4891 0.574055 33.6104 5.68945 33.6104 11.9215V11.9235Z" fill="white"/>
<path d="M23.0699 20.6298C23.0215 20.39 22.8804 20.1934 22.7035 20.0204C22.5014 19.8218 22.2592 19.6665 21.9981 19.5387C21.6022 19.348 21.181 19.2104 20.7557 19.0905C20.3745 18.9843 19.987 18.8959 19.5933 18.8408C19.4269 19.0748 19.2605 19.3126 19.09 19.5505C19.25 19.5761 19.4122 19.5997 19.5722 19.6272C19.9828 19.696 20.3914 19.7746 20.7893 19.8946C21.1494 20.0007 21.5032 20.1285 21.8254 20.3153C21.9665 20.3979 22.097 20.4922 22.1876 20.6259C22.2634 20.736 22.2802 20.8559 22.2108 20.9719C22.1686 21.0388 22.1118 21.0997 22.0507 21.1547C21.9328 21.2609 21.7896 21.3336 21.6443 21.4025C21.3095 21.5656 20.9599 21.6836 20.5977 21.7819C20.2861 21.8645 19.9744 21.9313 19.6564 21.9863C19.4438 22.0237 19.2269 22.0532 19.0121 22.0827C18.831 22.1063 18.6478 22.1259 18.4667 22.1436C18.3087 22.1593 18.1487 22.1731 17.9908 22.1829C17.8665 22.1928 17.7402 22.1967 17.618 22.2026C17.4138 22.2124 17.2137 22.2262 17.0095 22.2262C17.0053 22.2262 16.9989 22.2262 16.9947 22.2262C16.7631 22.2301 16.5293 22.2301 16.2977 22.2223C16.1292 22.2183 15.9629 22.2105 15.7965 22.2006C15.6281 22.1908 15.4617 22.1849 15.2954 22.1711C15.0279 22.1495 14.7605 22.1259 14.4931 22.0945C14.2361 22.063 13.9771 22.0257 13.7223 21.9824C13.3644 21.9195 13.0085 21.8389 12.661 21.7367C12.2757 21.6226 11.8987 21.4831 11.5513 21.2884C11.4186 21.2118 11.2965 21.1272 11.2143 20.9975C11.1533 20.9031 11.1364 20.8048 11.1785 20.6986C11.2143 20.6141 11.2754 20.5414 11.3449 20.4824C11.4902 20.3585 11.6566 20.2642 11.8313 20.1855C12.3241 19.9634 12.84 19.8159 13.3749 19.7176C13.6823 19.6587 13.9919 19.6095 14.3014 19.5584C14.133 19.3244 13.9624 19.0846 13.7918 18.8467C13.6507 18.8683 13.5118 18.8919 13.3728 18.9195C12.96 19.0001 12.5557 19.1062 12.1598 19.2419C11.804 19.3618 11.4544 19.4955 11.1343 19.6881C10.8858 19.8376 10.6732 20.0184 10.5131 20.2504C10.2457 20.6357 10.2541 21.0682 10.5531 21.4378C10.6942 21.6108 10.8648 21.7504 11.0543 21.8743C11.3933 22.0945 11.7661 22.2498 12.1535 22.3776C12.5726 22.5152 13.0022 22.6213 13.4381 22.7C13.7055 22.7491 13.9729 22.7884 14.2425 22.8258C14.4193 22.8494 14.5941 22.869 14.771 22.8867C14.9711 22.9084 15.1711 22.9261 15.3733 22.9418C15.508 22.9516 15.6449 22.9556 15.7797 22.9614C15.9818 22.9693 16.1819 22.985 16.384 22.985C16.6599 22.985 16.9337 22.9791 17.2074 22.9752C17.3485 22.9752 17.4896 22.9673 17.6286 22.9614C17.8644 22.9477 18.1024 22.9339 18.3361 22.9143C18.5383 22.8985 18.7383 22.8808 18.9384 22.8553C19.2521 22.814 19.5701 22.7727 19.8839 22.7177C20.2924 22.6508 20.6946 22.5565 21.0863 22.4346C21.5158 22.3009 21.9286 22.1377 22.3013 21.8979C22.5687 21.7268 22.8004 21.5243 22.9583 21.255C23.072 21.0564 23.1078 20.8481 23.0636 20.6279L23.0699 20.6298Z" fill="#0082E0"/>
<path d="M10.9315 12.3196C11.0389 12.695 11.1905 13.0568 11.3463 13.4146C11.5274 13.8333 11.7233 14.2422 11.936 14.6472C12.2097 15.1761 12.5045 15.6951 12.8162 16.2062C13.2226 16.8707 13.6543 17.5234 14.1007 18.1663C14.107 18.1761 14.1133 18.1859 14.1197 18.1938C14.3681 18.5516 14.6229 18.9055 14.8777 19.2593C15.0504 19.4972 15.221 19.7331 15.3958 19.971C15.4716 20.0752 15.5495 20.1794 15.6274 20.2816C15.9201 20.6729 16.2191 21.0621 16.5139 21.4494C16.556 21.5045 16.5961 21.5595 16.6382 21.6165C16.6529 21.6362 16.6677 21.6539 16.6824 21.6735C16.7056 21.6519 16.7266 21.6342 16.7456 21.6165C16.7519 21.6106 16.7582 21.6028 16.7645 21.5949C16.8214 21.528 16.8782 21.4651 16.933 21.3963C17.3057 20.9265 17.6574 20.4448 18.0069 19.9592C18.0575 19.8884 18.108 19.8177 18.1607 19.7449C18.4997 19.2711 18.8366 18.7954 19.1714 18.3196C19.2009 18.2764 19.2325 18.2331 19.2641 18.1899C19.4199 17.9697 19.5736 17.7495 19.7231 17.5234C19.9695 17.1518 20.2096 16.7744 20.4518 16.4009C20.7655 15.9153 21.0666 15.4238 21.3425 14.9166C21.5257 14.5824 21.6984 14.2422 21.8626 13.9002C22.1743 13.2494 22.4207 12.5791 22.5744 11.8792C22.6649 11.4821 22.7092 11.081 22.7239 10.674C22.7281 10.5836 22.7155 10.4912 22.7155 10.3988C22.7113 10.1452 22.6797 9.89554 22.6312 9.64586C22.5323 9.11702 22.3385 8.61571 22.0627 8.14781C21.7194 7.56589 21.2772 7.05277 20.7529 6.60257C20.3317 6.24084 19.8642 5.93808 19.3483 5.7002C18.8935 5.48985 18.4218 5.34043 17.9332 5.25V8.25986C18.7629 8.67468 19.3631 9.51414 19.3631 10.4755C19.3631 11.834 18.1312 12.9821 16.615 12.9428C15.2273 12.9093 13.9996 11.8025 14.0396 10.3674C14.067 9.45319 14.6524 8.67862 15.4526 8.27756V5.27949C15.4084 5.28736 15.3642 5.29522 15.32 5.30701C14.8293 5.41711 14.3597 5.58028 13.9133 5.79653C13.5911 5.95381 13.2837 6.13074 12.9931 6.33717C12.6667 6.56915 12.3676 6.83062 12.096 7.11962C11.778 7.45776 11.5106 7.82933 11.2916 8.22645C11.1063 8.56459 10.9652 8.91846 10.862 9.28609C10.7567 9.66748 10.6999 10.0548 10.683 10.448C10.6725 10.7409 10.6872 11.0338 10.723 11.3267C10.7651 11.661 10.8346 11.9893 10.9294 12.3137L10.9315 12.3196Z" fill="#0082E0"/>
<path d="M39.1143 39.6984V17.3318C39.1143 10.6417 35.0522 4.83427 29.1055 1.94629C32.2915 4.26021 34.3447 7.87362 34.3447 11.9235V39.6984C34.3447 42.0221 32.9422 44.0451 30.8849 45.0693H33.3613C36.5389 45.0693 39.1143 42.665 39.1143 39.6984Z" fill="#15213F"/>
<path d="M39.8786 17.3316V28.1463H44.1218C44.7283 28.1463 45.221 27.6862 45.221 27.12V22.7576C45.221 13.3663 39.1248 5.30197 30.4258 1.82617C36.0819 4.97562 39.8786 10.7476 39.8786 17.3316Z" fill="#15213F"/>
<path d="M45.8056 31.1753H45.2202V29.8856C45.2202 29.3194 44.7274 28.8594 44.1209 28.8594H39.8778V39.6996C39.8778 42.0233 38.4753 44.0463 36.418 45.0706H39.4671C42.6448 45.0706 45.2202 42.6662 45.2202 39.6996V39.3693H45.8056C46.1151 39.3693 46.3636 39.1354 46.3636 38.8484V31.6982C46.3636 31.4092 46.113 31.1772 45.8056 31.1772V31.1753Z" fill="#15213F"/>
<path d="M8.76432 43.2266C7.66931 43.2266 6.77646 44.0483 6.76172 45.0687C6.76172 45.0785 6.76172 45.0883 6.76172 45.0981C6.76172 46.1303 7.65878 46.9678 8.76432 46.9678C9.86986 46.9678 10.7669 46.1303 10.7669 45.0981C10.7669 45.0883 10.7669 45.0785 10.7669 45.0687C10.7522 44.0503 9.85933 43.2266 8.76432 43.2266Z" fill="#15213F"/>
<path d="M24.8581 43.2266C23.7631 43.2266 22.8702 44.0483 22.8555 45.0687C22.8555 45.0785 22.8555 45.0883 22.8555 45.0981C22.8555 46.1303 23.7525 46.9678 24.8581 46.9678C25.9636 46.9678 26.8607 46.1303 26.8607 45.0981C26.8607 45.0883 26.8607 45.0785 26.8607 45.0687C26.8459 44.0503 25.9531 43.2266 24.8581 43.2266Z" fill="#15213F"/>
<path d="M60.7536 44.9825C59.3806 44.9825 58.0813 44.7033 56.8537 44.145C55.626 43.5866 54.7542 42.7963 54.2383 41.7701L55.8134 40.5493C56.1693 41.3022 56.8431 41.9215 57.835 42.4031C58.8289 42.8848 59.8081 43.1266 60.7767 43.1266C61.8907 43.1266 62.8846 42.9005 63.7564 42.4484C64.6282 41.9962 65.0641 41.371 65.0641 40.5709C65.0641 39.9673 64.8009 39.4857 64.2766 39.1239C63.7522 38.7622 63.0299 38.4536 62.1097 38.198L58.3319 37.158C57.2327 36.8415 56.3504 36.352 55.6807 35.6875C55.0111 35.0249 54.6763 34.1953 54.6763 33.2005C54.6763 31.8598 55.2933 30.7667 56.5294 29.9213C57.7655 29.078 59.1806 28.6553 60.7788 28.6553C62.0065 28.6553 63.1563 28.8617 64.2302 29.2765C65.3042 29.6913 66.1549 30.3204 66.7845 31.1638L65.1378 32.3847C64.7019 31.7811 64.0849 31.3191 63.2847 30.9948C62.4845 30.6704 61.657 30.5092 60.802 30.5092C59.8986 30.5092 59.0416 30.7431 58.2351 31.211C57.4285 31.6789 57.0242 32.3119 57.0242 33.1101C57.0242 34.1816 57.8308 34.9266 59.4459 35.3493L63.3458 36.4345C66.0581 37.1875 67.4142 38.485 67.4142 40.3232C67.4142 41.6797 66.7572 42.7963 65.4411 43.6692C64.1249 44.5441 62.5625 44.9805 60.7557 44.9805L60.7536 44.9825Z" fill="white"/>
<path d="M76.2768 44.7571V30.7832H71.4082V28.8389H83.348V30.7832H78.5047V44.7571H76.2768Z" fill="white"/>
<path d="M101.755 42.598C100.043 44.2042 97.9771 45.0063 95.5554 45.0063C93.1338 45.0063 91.0659 44.2042 89.356 42.598C87.644 40.9919 86.7891 39.0593 86.7891 36.7985C86.7891 34.5376 87.644 32.6071 89.356 31.0107C91.068 29.4144 93.1338 28.6143 95.5554 28.6143C97.9771 28.6143 100.045 29.4144 101.755 31.0107C103.467 32.6091 104.322 34.5376 104.322 36.7985C104.322 39.0593 103.467 40.9919 101.755 42.598ZM90.9901 41.1629C92.2578 42.368 93.7803 42.9716 95.5554 42.9716C97.3306 42.9716 98.8531 42.368 100.121 41.1629C101.388 39.9578 102.022 38.503 102.022 36.7985C102.022 35.094 101.388 33.6373 100.121 32.4223C98.8531 31.2093 97.3306 30.6018 95.5554 30.6018C93.7803 30.6018 92.2578 31.2093 90.9901 32.4223C89.7224 33.6353 89.0886 35.094 89.0886 36.7985C89.0886 38.503 89.7224 39.9558 90.9901 41.1629Z" fill="white"/>
<path d="M110.428 44.7571V28.8389H117.015C118.419 28.8389 119.618 29.3028 120.612 30.2288C121.606 31.1548 122.1 32.2832 122.1 33.6083C122.1 34.603 121.789 35.4897 121.168 36.2643C120.546 37.0408 119.75 37.5637 118.782 37.835L123.989 44.7532H121.3L116.432 38.242H112.629V44.7532H110.424L110.428 44.7571ZM112.631 36.392H116.87C117.71 36.392 118.419 36.1207 119.001 35.5781C119.582 35.0355 119.872 34.3789 119.872 33.6102C119.872 32.8415 119.582 32.1633 119.001 31.6207C118.419 31.0781 117.71 30.8068 116.87 30.8068H112.631V36.392Z" fill="white"/>
<path d="M127.621 44.7567L135.564 28.4551H135.88L143.848 44.7567H141.427L139.997 41.682H131.447L130.018 44.7567H127.619H127.621ZM132.345 39.7829H139.077L135.71 32.6602L132.342 39.7829H132.345Z" fill="white"/>
<path d="M156.104 45.0063C153.698 45.0063 151.636 44.2042 149.916 42.598C148.195 40.9918 147.336 39.0593 147.336 36.7985C147.336 34.5376 148.191 32.6071 149.903 31.0107C151.615 29.4124 153.681 28.6143 156.102 28.6143C157.669 28.6143 159.13 28.9799 160.487 29.7112C161.843 30.4426 162.917 31.4413 163.708 32.7073L161.697 33.7257C161.133 32.7762 160.354 32.0193 159.36 31.4531C158.366 30.8869 157.282 30.6058 156.102 30.6058C154.31 30.6058 152.784 31.2093 151.524 32.4144C150.265 33.6215 149.635 35.0822 149.635 36.8005C149.635 38.5187 150.261 40.0069 151.512 41.2199C152.763 42.4329 154.293 43.0404 156.1 43.0404C157.764 43.0404 159.192 42.543 160.388 41.5482C161.582 40.5535 162.253 39.309 162.399 37.8169H156.102V36.3247H164.772V36.8909C164.74 39.138 163.883 41.0508 162.205 42.6334C160.527 44.216 158.49 45.0083 156.102 45.0083L156.104 45.0063Z" fill="white"/>
<path d="M170.535 44.7571V28.8389H180.999V30.7832H172.765V35.645H180.298V37.2512H172.765V42.8128H180.999V44.7571H170.535Z" fill="white"/>
<path d="M65.8336 1.65139C69.8346 1.65139 73.2649 3.17303 75.4086 5.76022L71.8351 8.66786C70.5485 7.14621 68.2342 5.97254 66.0337 5.97254C61.7758 5.97254 59.6321 8.77402 59.6321 11.603C59.6321 14.432 61.7758 17.206 66.0337 17.206C68.8344 17.206 70.6074 15.9261 71.8351 14.4576L75.4086 17.3652C73.2081 19.8993 69.7778 21.5546 65.8063 21.5546C60.6618 21.5546 54.6309 18.1653 54.6309 11.601C54.6309 5.03675 60.6892 1.64746 65.8357 1.64746L65.8336 1.65139Z" fill="white"/>
<path d="M96.6153 2.26465V6.02748H78.752V2.26465H96.6153ZM96.6153 9.73722V13.4725H78.752V9.73722H96.6153ZM96.6153 17.1803V20.9431H78.8383V17.1803H96.6153Z" fill="white"/>
<path d="M100.787 2.26465H105.618L117.907 15.2851V2.26465H122.708V20.9431H117.907L105.618 7.92265V20.9431H100.787V2.26465Z" fill="white"/>
<path d="M126.994 2.26465H131.825V20.9431H126.994V2.26465Z" fill="white"/>
<path d="M157.06 2.26465V5.99995H148.314V20.9431H143.484V5.97439H134.738V2.26465H157.06Z" fill="white"/>
<path d="M159.975 2.26465H164.805V9.70969H175.837V2.26465H180.639V20.9431H175.837V13.4725H164.805V20.9431H159.975V2.26465Z" fill="white"/>
</svg>
