<svg width="180" height="55" viewBox="0 0 180 55" fill="none" xmlns="http://www.w3.org/2000/svg">
<path fill-rule="evenodd" clip-rule="evenodd" d="M111.661 42.3759C101.24 50.0812 86.0827 54.1864 73.0095 54.1864C54.6944 54.1864 38.274 47.4285 25.7692 36.1865C24.8218 35.3023 25.6429 34.1023 26.8428 34.797C40.2949 42.6286 56.9048 47.3022 74.0831 47.3022C85.6406 47.3022 98.398 44.9022 110.145 39.9128C111.913 39.218 113.366 41.1128 111.661 42.3759Z" fill="#303C43"/>
<path fill-rule="evenodd" clip-rule="evenodd" d="M116.018 37.3867C114.691 35.6815 107.176 36.5657 103.829 37.0078C102.818 37.1341 102.629 36.2499 103.576 35.6183C109.576 31.3869 119.365 32.6501 120.502 34.0395C121.639 35.4289 120.186 45.2811 114.565 49.9546C113.681 50.6493 112.86 50.2704 113.239 49.323C114.502 46.1653 117.344 39.155 116.018 37.3867Z" fill="#303C43"/>
<path fill-rule="evenodd" clip-rule="evenodd" d="M104.017 5.93664V1.83151C104.017 1.19996 104.459 0.821017 105.027 0.821017H123.342C123.91 0.821017 124.416 1.26311 124.416 1.83151V5.30508C124.416 5.87348 123.91 6.63136 123.026 7.89447L113.553 21.4098C117.09 21.3466 120.816 21.8519 123.974 23.6203C124.668 23.9992 124.858 24.6307 124.921 25.1991V29.5569C124.921 30.1884 124.289 30.8832 123.595 30.5042C117.974 27.5359 110.458 27.2201 104.269 30.5674C103.638 30.8832 102.943 30.2516 102.943 29.6201V25.4518C102.943 24.8202 102.943 23.6834 103.638 22.6729L114.627 6.94713H105.09C104.522 6.94713 104.017 6.50504 104.017 5.93664ZM37.2616 31.3884H31.7039C31.1987 31.3252 30.7566 30.9463 30.6934 30.4411V1.89467C30.6934 1.32627 31.1987 0.884177 31.7671 0.884177H36.9458C37.5142 0.884177 37.8931 1.32627 37.9563 1.83151V5.5577H38.0826C39.4088 1.95782 41.9982 0.252619 45.4086 0.252619C48.8821 0.252619 51.0925 1.95782 52.6083 5.5577C53.9345 1.95782 57.0291 0.252619 60.3132 0.252619C62.6499 0.252619 65.1762 1.19996 66.755 3.41041C68.5234 5.81033 68.1444 9.2839 68.1444 12.3785V30.4411C68.1444 31.0095 67.6392 31.4516 67.0708 31.4516H61.5763C61.0079 31.3884 60.5658 30.9463 60.5658 30.4411V15.2837C60.5658 14.0837 60.6921 11.0522 60.4395 9.91544C59.9974 8.02077 58.7975 7.45237 57.1554 7.45237C55.8292 7.45237 54.3766 8.33656 53.8082 9.78914C53.2398 11.2417 53.303 13.6416 53.303 15.2837V30.4411C53.303 31.0095 52.7977 31.4516 52.2293 31.4516H46.6717C46.1033 31.3884 45.6612 30.9463 45.6612 30.4411V15.2837C45.6612 12.1259 46.1664 7.38921 42.2508 7.38921C38.272 7.38921 38.3984 11.9364 38.3984 15.2837V30.4411C38.3352 30.9463 37.8931 31.3884 37.2616 31.3884ZM140.205 0.252619C148.478 0.252619 152.962 7.32606 152.962 16.3573C152.962 25.0728 148.036 32.02 140.205 32.02C132.121 32.02 127.7 24.9465 127.7 16.1047C127.637 7.19976 132.121 0.252619 140.205 0.252619ZM140.205 6.1261C136.099 6.1261 135.847 11.747 135.847 15.2205C135.847 18.6941 135.784 26.1465 140.141 26.1465C144.436 26.1465 144.689 20.1467 144.689 16.4837C144.689 14.0837 144.562 11.1786 143.868 8.90497C143.236 6.88398 141.973 6.1261 140.205 6.1261ZM163.635 31.3884H158.077C157.509 31.3252 157.067 30.8832 157.067 30.3779V1.76835C157.13 1.26311 157.572 0.821017 158.141 0.821017H163.319C163.825 0.821017 164.203 1.19996 164.33 1.64205V5.9998H164.456C166.035 2.08414 168.182 0.252619 172.035 0.252619C174.498 0.252619 176.961 1.13679 178.54 3.59987C179.992 5.87347 179.992 9.72598 179.992 12.5048V30.5042C179.929 31.0095 179.487 31.3884 178.919 31.3884H173.361C172.856 31.3252 172.414 30.9463 172.35 30.5042V14.9679C172.35 11.8101 172.729 7.26291 168.877 7.26291C167.551 7.26291 166.288 8.1471 165.656 9.53652C164.898 11.3049 164.772 13.0101 164.772 14.9679V30.3779C164.709 30.9463 164.203 31.3884 163.635 31.3884ZM89.4277 17.7468C89.4277 19.8941 89.4909 21.7256 88.4173 23.6834C87.5331 25.2623 86.1437 26.2096 84.5648 26.2096C82.4175 26.2096 81.1544 24.5676 81.1544 22.1677C81.1544 17.431 85.3858 16.5468 89.4277 16.5468V17.7468ZM95.0486 31.3253C94.6696 31.641 94.1644 31.7042 93.7223 31.4516C91.8908 29.9358 91.5119 29.178 90.5014 27.7254C87.4699 30.82 85.2595 31.7673 81.3439 31.7673C76.6704 31.7673 73.0074 28.8622 73.0074 23.115C73.0074 18.5678 75.4704 15.5363 78.944 14.0206C81.9754 12.6943 86.2068 12.4417 89.4277 12.0628V11.368C89.4277 10.0418 89.5541 8.46288 88.733 7.32607C88.0383 6.31558 86.7752 5.87348 85.6384 5.87348C83.4912 5.87348 81.5965 6.94714 81.1544 9.22075C81.0281 9.72599 80.7123 10.2312 80.2071 10.2312L74.8389 9.66282C74.3968 9.53651 73.8916 9.22074 74.0179 8.52603C75.281 1.95783 81.1544 0 86.4594 0C89.1751 0 92.7118 0.69471 94.8591 2.77885C97.5748 5.30508 97.3221 8.7155 97.3221 12.3785V21.0309C97.3221 23.6202 98.3958 24.7571 99.4063 26.2096C99.7852 26.7149 99.8483 27.3464 99.4063 27.6622C98.2063 28.6096 96.1853 30.3779 95.0486 31.3253ZM16.4835 17.7468C16.4835 19.8941 16.5467 21.7256 15.473 23.6834C14.5888 25.2623 13.1994 26.2096 11.6206 26.2096C9.47327 26.2096 8.21017 24.5676 8.21017 22.1677C8.21017 17.431 12.4416 16.5468 16.4835 16.5468V17.7468ZM22.0412 31.3253C21.6622 31.641 21.157 31.7042 20.7149 31.4516C18.8834 29.9358 18.5045 29.178 17.494 27.7254C14.4625 30.82 12.2521 31.7673 8.33648 31.7673C3.663 31.7673 0 28.8622 0 23.115C0 18.5678 2.46305 15.5363 5.93658 14.0206C8.96803 12.6943 13.1994 12.4417 16.4203 12.0628V11.368C16.4203 10.0418 16.5467 8.46288 15.7256 7.32607C15.0309 6.31558 13.7678 5.87348 12.631 5.87348C10.4838 5.87348 8.5891 6.94714 8.14702 9.22075C8.02071 9.72599 7.70493 10.2312 7.19969 10.2312L1.8315 9.66282C1.38941 9.53651 0.884176 9.22074 1.01049 8.52603C2.27359 1.95783 8.14702 0 13.4521 0C16.1677 0 19.7044 0.69471 21.8517 2.77885C24.5674 5.30508 24.3147 8.7155 24.3147 12.3785V21.0309C24.3147 23.6202 25.3884 24.7571 26.3989 26.2096C26.7778 26.7149 26.841 27.3464 26.3989 27.6622C25.1989 28.6096 23.1779 30.3779 22.0412 31.3253Z" fill="#303C43"/>
</svg>
