<svg width="180" height="59" viewBox="0 0 180 59" fill="none" xmlns="http://www.w3.org/2000/svg">
<path d="M22.1687 0H23.7693C29.3264 0.12069 34.7928 2.35345 38.719 6.30603C37.2693 7.78447 35.7895 9.20258 34.37 10.681C32.1653 8.68965 29.5076 7.15085 26.6083 6.60775C22.3197 5.70258 17.6989 6.51723 14.1049 8.9612C10.1787 11.5258 7.52102 15.8707 6.94719 20.5172C6.31296 25.1034 7.61162 29.931 10.6016 33.4913C13.4707 36.9612 17.8499 39.1336 22.3801 39.2844C26.6083 39.5258 31.0177 38.2284 34.0982 35.2715C36.5143 33.1896 37.6318 30.0215 37.9942 26.9439C32.9808 26.9439 27.9673 26.9741 22.9539 26.9439V20.7284H44.0647C45.1519 27.3965 43.5814 34.9094 38.5076 39.6767C35.125 43.056 30.4438 45.0474 25.672 45.4396C21.0512 45.8922 16.2794 45.0172 12.172 42.7844C7.2492 40.1594 3.32303 35.7241 1.39014 30.5043C-0.42194 25.7069 -0.452141 20.2758 1.23913 15.4483C2.7794 11.0431 5.73914 7.15085 9.54451 4.43534C13.1989 1.75 17.6385 0.271551 22.1687 0Z" fill="#303C43"/>
<path d="M143.276 1.56982H149.739V44.656C147.595 44.656 145.421 44.6861 143.276 44.6258C143.307 30.2939 143.276 15.9319 143.276 1.56982Z" fill="#303C43"/>
<path d="M58.4406 16.5054C62.4272 15.7511 66.746 16.596 70.0379 18.9796C73.0279 21.0916 75.1118 24.4106 75.746 28.0313C76.5614 32.2252 75.5346 36.8114 72.8165 40.1304C69.8869 43.8416 65.0849 45.833 60.4037 45.5313C56.1151 45.2899 51.9473 43.1476 49.4104 39.6476C46.5413 35.7856 45.8467 30.4753 47.4171 25.9494C48.9876 21.0916 53.4272 17.3804 58.4406 16.5054ZM59.3467 22.2382C57.7158 22.6606 56.2057 23.596 55.1185 24.9235C52.189 28.4235 52.3702 34.1261 55.6017 37.3847C57.444 39.2554 60.2225 40.1304 62.7896 39.6175C65.1755 39.1951 67.2594 37.5959 68.4071 35.4839C70.4004 31.8934 69.8265 26.9451 66.7762 24.1391C64.8131 22.3287 61.944 21.5744 59.3467 22.2382Z" fill="#303C43"/>
<path d="M90.4526 16.5052C95.013 15.6302 99.9962 16.8975 103.409 20.0957C108.966 25.0742 109.57 34.3974 104.828 40.1302C101.959 43.7509 97.3083 45.7422 92.7177 45.531C88.3385 45.4103 84.0197 43.2379 81.4224 39.6474C78.4929 35.6948 77.8587 30.2638 79.5197 25.6474C81.1808 20.9406 85.5298 17.35 90.4526 16.5052ZM91.3587 22.238C89.7278 22.6604 88.2177 23.5957 87.1305 24.8931C84.2311 28.3328 84.352 33.9449 87.4627 37.2336C89.305 39.1948 92.1741 40.1604 94.8318 39.6173C97.1875 39.1647 99.3016 37.5957 100.449 35.4836C102.412 31.863 101.839 26.9147 98.758 24.1087C96.7949 22.2983 93.9258 21.5742 91.3587 22.238Z" fill="#303C43"/>
<path d="M117.604 18.2537C121.077 16.0813 125.698 15.4779 129.443 17.3485C130.621 17.8615 131.587 18.7365 132.523 19.6115C132.553 18.7968 132.523 17.952 132.553 17.1072C134.577 17.1373 136.6 17.1072 138.654 17.1373V43.7494C138.624 47.7623 137.597 52.0166 134.698 54.9433C131.527 58.1718 126.664 59.1675 122.285 58.5037C117.604 57.8097 113.527 54.4002 111.714 50.0856C113.527 49.2106 115.429 48.5166 117.302 47.702C118.359 50.1761 120.503 52.2882 123.191 52.7709C125.879 53.2537 128.99 52.5899 130.741 50.3571C132.614 48.064 132.614 44.9261 132.523 42.1201C131.134 43.4778 129.533 44.6847 127.6 45.1373C123.402 46.314 118.782 44.8658 115.55 42.0296C112.288 39.1933 110.355 34.8184 110.537 30.4735C110.627 25.5554 113.406 20.8184 117.604 18.2537ZM123.855 22.1158C122.013 22.4175 120.292 23.4434 119.114 24.8615C116.275 28.2408 116.275 33.6416 119.144 36.9606C120.775 38.9218 123.402 40.008 125.939 39.7365C128.325 39.4951 130.53 37.9865 131.708 35.9046C133.701 32.3744 133.369 27.577 130.681 24.4994C129.02 22.5985 126.362 21.6632 123.855 22.1158Z" fill="#303C43"/>
<path d="M157.499 19.7943C161.123 16.4149 166.711 15.2684 171.362 17.0486C175.771 18.708 178.58 22.902 179.999 27.2167C173.445 29.9322 166.922 32.6175 160.368 35.333C161.274 37.0528 162.664 38.6218 164.536 39.2554C167.164 40.1908 170.304 39.8589 172.509 38.1089C173.385 37.4451 174.08 36.5701 174.744 35.7253C176.405 36.8416 178.066 37.9278 179.727 39.0442C177.372 42.5744 173.415 45.0485 169.157 45.4408C164.445 46.014 159.432 44.2037 156.382 40.5227C151.368 34.7296 151.851 25.0141 157.499 19.7943ZM160.731 25.3761C159.704 26.8546 159.281 28.6649 159.311 30.4451C163.69 28.6348 168.07 26.8244 172.449 24.9839C171.724 23.2942 169.972 22.2684 168.19 21.9968C165.321 21.4839 162.331 23.0227 160.731 25.3761Z" fill="#303C43"/>
</svg>
