<svg width="180" height="33" viewBox="0 0 180 33" fill="none" xmlns="http://www.w3.org/2000/svg">
<path d="M18.2634 12.16C18.2634 16.2587 16.2775 19.0347 11.2481 19.0347H9.6589V5.98123C10.2239 5.94935 10.7515 5.94935 11.2481 5.94935C16.0103 5.9489 18.2634 8.19557 18.2634 12.16ZM13.1009 24.7183C22.0999 24.7183 27.7896 20.0907 27.7896 12.0294C27.7892 3.17155 21.7023 0 11.7775 0C7.93925 0 3.3075 0.263548 0 0.659992V32.2543H9.65935V24.7183H13.1009ZM142.521 12.16C142.521 16.2587 140.538 19.0347 135.507 19.0347H133.923V5.98123C134.483 5.94935 135.012 5.94935 135.507 5.94935C140.27 5.9489 142.521 8.19557 142.521 12.16ZM137.364 24.7183C146.356 24.7183 152.049 20.0907 152.049 12.0294C152.049 3.17155 145.963 0 136.037 0C132.2 0 127.566 0.263548 124.258 0.659992V32.2543H133.922V24.7183H137.364ZM164.619 8.72311C164.619 7.00534 166.341 6.21111 169.117 6.21111C172.162 6.21111 175.473 6.87244 177.72 7.80137L176.927 0.925335C174.412 0.396444 172.162 0 168.061 0C160.253 0 154.961 3.07457 154.961 9.5187C154.961 20.6196 170.049 18.3743 170.049 23.5294C170.049 25.5103 168.591 26.5671 165.017 26.5671C161.846 26.5671 156.946 25.5103 154.035 24.0569L155.096 31.3294C158.005 32.3867 161.975 32.9138 165.152 32.9138C173.222 32.9138 179.84 30.2694 179.84 22.3369C179.84 11.7658 164.619 13.7467 164.619 8.72311ZM116.982 0.659992H107.323V32.2543H116.982V0.659992ZM77.8109 0.659992H68.1507V32.2543H77.8109V0.659992ZM94.617 25.9071V0.659992H84.9567V32.2543H102.426L103.88 25.9071H94.617ZM61.0054 0.659992H51.3451V13.2178H41.2877V0.659992H31.6257V32.2543H41.2872V19.8271H51.3447V32.2543H61.0049L61.0054 0.659992Z" fill="#303C43"/>
</svg>
