<svg width="180" height="60" viewBox="0 0 180 60" fill="none" xmlns="http://www.w3.org/2000/svg">
<path fill-rule="evenodd" clip-rule="evenodd" d="M157.412 36.6961C172.695 29.2185 181.124 20.7066 179.879 13.6572C177.258 -1.15861 132.353 -3.54494 86.0107 4.68228C64.803 8.44819 44.5202 14.1006 30.789 19.706C31.5182 19.6599 32.0282 19.6937 32.0282 19.6937C37.9634 19.8575 37.6008 23.5477 37.6008 23.5477L37.61 25.8019H32.8783V24.2718C32.8783 23.1861 31.5561 23.1134 31.5561 23.1134C30.5442 23.1134 30.3076 23.8006 30.3076 23.8006C29.7474 24.8494 30.706 25.7548 30.706 25.7548C31.1946 26.2986 33.6546 27.4375 33.6546 27.4375C34.4514 27.7458 35.7358 28.5416 35.7358 28.5416C38.1426 29.9887 37.9244 32.7386 37.9244 32.7386V34.5494C37.6356 39.0373 31.4475 38.9093 31.4475 38.9093C24.9686 38.9093 25.1099 34.659 25.1099 34.659V32.4375H30.1509V33.9677C30.1509 35.2704 31.4096 35.3288 31.4096 35.3288C32.7851 35.382 32.9019 34.0516 32.9019 34.0516C33.0893 32.7581 31.6636 31.9439 31.6636 31.9439C30.4038 31.2904 29.1492 30.627 27.8998 29.9539C26.7414 29.194 26.2713 28.5057 26.2713 28.5057C25.4387 27.457 25.494 25.8275 25.494 25.8275V24.4162C25.494 22.462 26.0194 21.9018 26.0194 21.9018C26.0412 21.8596 26.0641 21.818 26.088 21.7769C9.16034 29.5995 -1.20231 38.6666 0.11069 46.1216C2.77458 61.2446 45.1234 63.2285 94.9323 55.5574C117.867 52.026 137.826 45.5245 152.931 38.7915C152.823 38.7967 152.708 38.7967 152.599 38.7967C152.599 38.7967 146.494 39.2903 146.349 34.3691V24.8504C146.349 24.8504 145.589 19.6035 152.429 19.6035C152.429 19.6035 156.882 19.4591 158.058 22.1005C158.058 22.1005 158.637 22.8072 158.484 25.7281H153.741V24.2318C153.741 24.2318 153.733 23.0233 152.503 23.0233C152.503 23.0233 151.216 23.0776 151.216 24.0905V33.9339C151.216 33.9339 151.162 35.2551 152.61 35.2551C152.61 35.2551 153.798 35.2284 153.798 33.8386V30.9924H152.504V28.3418H158.596V33.9339C158.596 33.9339 158.58 35.1096 158.092 35.7968C158.095 35.7979 157.601 36.5547 157.412 36.6961ZM140.045 38.2917H134.459L129.476 27.2992H129.266L129.548 38.2907H124.859V20.3164H130.618L135.43 31.2198H135.636L135.298 20.3143H140.045V38.2917ZM110.667 33.8274C110.667 35.3503 112.113 35.2735 112.113 35.2735C113.489 35.2735 113.419 33.7895 113.419 33.7895V20.2385H118.443V33.9533C118.443 38.895 112.187 38.8202 112.187 38.8202C104.984 38.8202 105.511 33.7178 105.511 33.7178V20.2375H110.65L110.667 33.8274ZM94.876 25.8019V24.2718C94.876 23.1851 93.5558 23.1134 93.5558 23.1134C92.5419 23.1134 92.3053 23.8006 92.3053 23.8006C91.7451 24.8494 92.7058 25.7548 92.7058 25.7548C93.1943 26.2966 95.6544 27.4375 95.6544 27.4375C96.4502 27.7447 97.7345 28.5416 97.7345 28.5416C100.141 29.9887 99.9252 32.7386 99.9252 32.7386V34.5494C99.6354 39.0373 93.4483 38.9103 93.4483 38.9103C86.9683 38.9103 87.1097 34.659 87.1097 34.659V32.4375H92.1517V33.9677C92.1517 35.2704 93.4104 35.3288 93.4104 35.3288C94.7869 35.382 94.9006 34.0516 94.9006 34.0516C95.0911 32.7581 93.6644 31.9439 93.6644 31.9439C92.4047 31.2901 91.1501 30.6268 89.9005 29.9539C88.7412 29.194 88.2721 28.5057 88.2721 28.5057C87.4405 27.4559 87.4927 25.8265 87.4927 25.8265V24.4151C87.4927 22.461 88.0181 21.9008 88.0181 21.9008C89.3577 19.3854 94.0259 19.6926 94.0259 19.6926C99.9611 19.8565 99.5985 23.5477 99.5985 23.5477L99.6087 25.8019H94.876ZM70.0468 20.3113L71.5616 30.1495H71.9313L73.5157 20.3123H81.3415L81.8474 38.2887H77.1423L77.0307 24.748H76.706L74.2552 38.2856H69.334L66.8524 24.7439H66.4847L66.4284 38.2897H61.7499L62.1453 20.3113H70.0468ZM51.6884 38.2692L49.8449 24.3332H49.4321L47.5876 38.2692H42.5517L45.6631 20.2959H53.6139L56.7274 38.2692H51.6884Z" fill="#303C43"/>
</svg>
