<svg width="178" height="27" viewBox="0 0 178 27" fill="none" xmlns="http://www.w3.org/2000/svg">
<path fill-rule="evenodd" clip-rule="evenodd" d="M14.9739 26.0733H8.02995V6.16885H0V0.194236H23.4315V6.16885H14.9739V26.0733ZM26.7167 7.02329C27.7644 0.931953 33.1956 0.0392205 38.3951 0.0392205C47.3187 0.0392205 50.461 2.25051 50.461 11.6009C50.461 21.1838 50.2285 26.2666 38.5893 26.2666C33.9725 26.2666 28.4629 25.9183 26.9109 20.603C26.4067 18.8567 26.3674 17.0339 26.3674 15.2101V13.3079C26.3674 11.2517 26.3674 9.07957 26.7167 7.02329ZM33.4673 14.7432C33.4673 18.3907 33.5448 20.3303 37.8516 20.3303C42.5851 20.3303 43.3219 19.1658 43.3219 14.7432C43.3219 13.5022 43.3612 12.2219 43.3612 10.9799C43.3612 7.52663 42.8177 5.97554 39.0936 5.97554C33.6625 5.97554 33.584 6.51903 33.4682 13.1912V14.7432H33.4673ZM70.7483 8.26435C70.7483 5.62536 69.8164 5.27704 67.3343 5.27704H66.6358C64.812 5.27704 62.8725 5.35455 62.8725 7.64335C62.8725 9.23459 63.3384 9.97138 65.0062 10.0881C71.0191 10.5924 78.1199 9.38961 78.1199 17.7315C78.1199 19.9437 78.1199 22.7368 76.2962 24.2888C74.1614 26.0733 71.2134 26.2283 68.4978 26.2283H66.7908C59.6517 26.2283 55.9267 25.9183 55.9267 17.6922H62.5223C62.5223 19.6318 62.9883 20.7963 65.1603 20.7963H68.1476C69.8939 20.7963 71.2899 20.5628 71.2899 18.2348C71.2899 15.946 69.9322 15.946 67.9917 15.8302C60.5043 15.3259 55.965 16.0235 55.965 7.41083C55.965 2.90979 57.7495 0.543486 62.3663 0.194236C63.8791 0.0775076 65.3919 0 66.9056 0C72.9195 0 77.3813 0.116725 77.3813 7.45005C77.3813 7.72179 77.3421 7.99354 77.3421 8.26528H70.7483V8.26435ZM106.429 26.0733H99.483V15.9077H90.4819V26.0733H83.537V0.194236H90.4819V9.97138H99.483V0.194236H106.429V26.0733ZM119.989 26.0733H113.045V0.194236H119.989V26.0733ZM126.65 0.194236H140.734C145.428 0.194236 148.455 1.47451 148.455 6.78983C148.455 9.77714 148.183 12.1827 144.42 12.8037V13.0353C147.913 13.3462 148.881 15.2083 148.881 18.6223C148.881 24.4419 146.943 26.0724 140.85 26.0724H126.65V0.194236ZM138.018 10.5532C139.92 10.4756 141.587 10.7091 141.587 8.34185C141.587 6.47981 141.084 5.8971 139.222 5.8971H133.596V10.5532H138.018ZM138.213 20.3695C140.385 20.3695 141.976 20.3303 141.976 17.809C141.976 15.4034 140.85 15.3259 138.678 15.3259H133.596V20.3695H138.213ZM170.291 26.0733H177.353L169.475 0.194236H158.962L151.201 26.0733H158.418L159.898 20.8747H168.79L170.291 26.0733ZM161.324 15.8694L164.316 5.35455L167.35 15.8694H161.324Z" fill="#303C43"/>
</svg>
