<svg width="1600" height="673" viewBox="0 0 1600 673" fill="none" xmlns="http://www.w3.org/2000/svg">
<path d="M0 380.898C0 380.898 68.3168 467.151 127.899 501.587C169.193 525.454 194.473 548.687 242.148 545.155C265.324 543.439 299.273 528.63 299.273 528.63C299.273 528.63 350.505 489.707 340.727 460.022C337.363 449.812 334.961 442.337 325.561 436.986C304.984 425.273 291.917 462.159 289.668 485.562C288.203 500.814 294.224 509.14 299.273 523.622C308.733 550.752 314.009 568.089 334.66 588.223C347.11 600.361 355.499 606.467 371.564 613.262C389.477 620.838 402.544 629.509 420.6 622.276C440.564 614.279 449.415 575.703 449.415 575.703C449.415 575.703 488.173 414.785 495.924 395.922C503.676 377.059 505.662 355.498 521.706 335.327C537.786 315.111 558.273 307.951 575.292 296.266C592.312 284.581 626.856 306.282 626.856 306.282C626.856 306.282 694.64 348.096 738.073 374.889M738.073 374.889C749.721 344.185 742.673 317.513 767.899 296.266C782.987 283.558 794.609 276.759 814.408 276.235C831.573 275.78 856.367 289.255 856.367 289.255C856.367 289.255 873.563 300.507 880.126 311.29C889.888 327.327 891.926 341.019 886.193 358.864C879.927 378.367 867.453 387.155 848.784 395.922C828.053 405.658 812.653 403.815 790.142 399.427C768.048 395.121 758.407 384.472 738.073 374.889ZM736.051 373.642C742.565 403.759 726.703 508.475 738.073 537.143C751.809 571.78 765.708 603.747 790.142 617.268C814.576 630.789 835.846 649.133 869.51 658.833C921.864 673.919 956.977 669.88 1009.04 653.825C1069.91 635.052 1106.7 612.945 1142.5 560.68C1155.88 541.138 1165.17 529.761 1169.79 506.595C1174.32 483.904 1165.75 447.503 1165.75 447.503C1165.75 447.503 1160.7 410.445 1159.18 404.936C1157.97 400.529 1146.33 364.662 1124.8 353.355C1113.85 347.601 1093.97 345.844 1093.97 345.844C1093.97 345.844 1035.18 372.596 997.409 367.377C982.421 365.307 962.932 356.16 960.506 353.355C958.079 350.551 940.284 340.335 940.284 340.335C925.793 332.99 911.132 299.772 913.997 289.255C916.862 278.739 918.686 266.344 924.613 252.698C951.528 190.735 1008.5 184.936 1070.71 156.547C1100.39 143.007 1116.92 133.251 1149.07 127.502C1201.29 118.164 1231.39 136.527 1284.04 143.026C1310.12 146.244 1324.55 153.145 1350.77 151.54C1386.04 149.381 1421.72 140.522 1436.71 123.496C1451.71 106.469 1484.74 67.9088 1484.74 67.9088C1484.74 67.9088 1513.33 28.4816 1540.35 15.8273C1561.8 5.77772 1576.3 2.97804 1600 4.30928" stroke="#0082E0" stroke-width="8"/>
</svg>
