<svg width="20" height="24" viewBox="0 0 20 24" fill="none" xmlns="http://www.w3.org/2000/svg">
<path d="M4.83225 23.5508C4.35907 23.236 3.93969 22.847 3.59025 22.3988C3.20586 21.9361 2.84972 21.4508 2.52375 20.9453C1.75881 19.8246 1.15893 18.5999 0.7425 17.3085C0.24225 15.8085 0 14.3708 0 12.9645C0 11.394 0.33975 10.023 1.00425 8.87102C1.49683 7.9706 2.22106 7.21815 3.102 6.69152C3.95573 6.16125 4.93668 5.87106 5.9415 5.85152C6.29325 5.85152 6.672 5.90252 7.074 6.00002C7.36275 6.08177 7.7145 6.21077 8.14425 6.37127C8.691 6.58202 8.99175 6.71102 9.09375 6.74252C9.414 6.85952 9.68325 6.91052 9.89475 6.91052C10.0552 6.91052 10.2817 6.85952 10.539 6.78152C10.6838 6.73052 10.9567 6.64052 11.3475 6.47327C11.7345 6.33227 12.039 6.21152 12.2812 6.12152C12.6525 6.01202 13.0117 5.91077 13.332 5.85977C13.7117 5.79991 14.097 5.78406 14.4802 5.81252C15.1445 5.85593 15.7987 5.99668 16.422 6.23027C17.4412 6.64052 18.2655 7.28102 18.879 8.19152C18.6197 8.35134 18.3763 8.53569 18.1522 8.74202C17.6645 9.17445 17.249 9.68211 16.9215 10.2458C16.4935 11.0161 16.2716 11.8838 16.2772 12.765C16.293 13.8473 16.5705 14.8005 17.1173 15.6248C17.5192 16.2356 18.0416 16.7581 18.6525 17.16C18.9652 17.3708 19.2345 17.5155 19.4925 17.613C19.3717 17.988 19.2427 18.351 19.0905 18.711C18.7452 19.5183 18.3267 20.2923 17.8402 21.0233C17.4067 21.6525 17.067 22.1213 16.809 22.4333C16.407 22.9095 16.02 23.2733 15.6292 23.5268C15.1995 23.8118 14.6917 23.964 14.1757 23.964C13.8263 23.9774 13.4769 23.9352 13.1407 23.8388C12.852 23.7413 12.5662 23.6355 12.285 23.5148C11.9926 23.3805 11.6911 23.2669 11.3827 23.175C10.6205 22.9792 9.82135 22.978 9.0585 23.1713C8.74575 23.2613 8.445 23.3663 8.148 23.4953C7.73025 23.6708 7.45275 23.7885 7.29225 23.8388C6.972 23.9325 6.63975 23.991 6.30375 24.0105C5.784 24.0105 5.2995 23.862 4.8195 23.5613L4.83225 23.5508ZM11.6872 5.08952C11.0077 5.42927 10.359 5.57402 9.71475 5.52677C9.6135 4.87802 9.71475 4.21427 9.984 3.48752C10.2132 2.87182 10.5519 2.30266 10.9837 1.80752C11.4398 1.28628 11.9931 0.85905 12.6128 0.549768C13.2727 0.210018 13.902 0.0262676 14.5035 -0.000732422C14.5815 0.678768 14.5035 1.34702 14.2537 2.06927C14.0226 2.70773 13.6845 3.30221 13.254 3.82727C12.8145 4.34922 12.2752 4.77811 11.6677 5.08877L11.6872 5.08952Z" fill="black"/>
</svg>
